<svg version="1.1" id="svg-draw" xmlns="http://www.w3.org/2000/svg" xmlns:xlink="http://www.w3.org/1999/xlink" x="0px" y="0px" width="100%" height="100%" viewBox="0 0 200 320" xml:space="preserve">
	<g id="svg-content">
		<g transform="matrix(0.70,0,0,0.70,30,40)">
			
<g id="XMLID_6_">
	<path id="XMLID_4_" fill="#FBCE3E" d="M27.2,93c0,0-19.3,29.9-21.3,34.3c-2.1,4.3-3.6,16.9,1.8,26.7c6.2,11.2,23.9,17.1,23.9,17.1
		s-5.1-16,1.3-27.2c6.4-11.2,11.6-18,11.6-18L27.2,93z"/>
	<path id="XMLID_3_" fill="#C6000B" d="M80.6,81.6c0,0-30.6,45.7-34.7,52.1c-4.1,6.4-11.6,17.8-10.8,25.8c0.8,8,1.5,12.3,1.5,12.3
		s19.5-0.9,28.8-11.9c9.2-11,31.1-45.7,31.1-45.7L80.6,81.6z"/>
	<path id="XMLID_2_" fill="#888888" d="M199,82.1h-76.5c0,0-20.9,32.1-40.4,63.9c-19.5,31.7-41.6,32-54.2,28.1
		C4,166.6,1,147.8,1,147.8s-1.3,49.1,50.9,49.3c29.5,0.1,45.2-16.7,51.6-26.3c4.1-6.1,20.6-32.1,38.8-60h38.2L199,82.1z"/>
	<polygon id="XMLID_1_" fill="#888888" points="148.9,160.4 105.7,160.4 124.2,131.6 167.4,131.6 	"/>
</g>

		</g>
		<text font-family="Lucida Grande, Microsoft Yahei" letter-spacing="4" text-anchor="middle" fill="#3e3a39" stroke="#3e3a39" stroke-width="1" font-size="50" dx="100" dy="250">MzShop</text>
		<text font-family="Lucida Grande, Microsoft Yahei" text-anchor="middle" fill="#888888" font-size="23" dx="100" dy="285"></text>
	</g>
</svg>